<?xml version="1.0" encoding="UTF-8"?>
<svg xmlns="http://www.w3.org/2000/svg" xmlns:xlink="http://www.w3.org/1999/xlink" width="400px" height="400px" viewBox="0 0 400 400" version="1.1">
<g id="surface1">
<path style=" stroke:none;fill-rule:nonzero;fill:rgb(94.509804%,76.078433%,10.588235%);fill-opacity:1;" d="M 271.800781 115.601562 C 292 131.199219 306.398438 155 304 176.398438 C 301.398438 197.800781 282.199219 217 265.398438 230 C 248.800781 243 234.601562 249.800781 217.601562 261.800781 C 200.601562 273.800781 180.601562 291 148.398438 298.199219 C 116.199219 305.398438 71.601562 302.601562 53.601562 280.199219 C 35.601562 257.800781 44 216 66 191 C 87.800781 166.199219 123.199219 158.398438 147.800781 143.601562 C 172.398438 128.601562 186.199219 106.398438 206 99.199219 C 225.800781 92 251.800781 99.800781 271.800781 115.601562 Z M 271.800781 115.601562 "/>
</g>
</svg>
