<?xml version="1.0" encoding="UTF-8"?>
<svg xmlns="http://www.w3.org/2000/svg" xmlns:xlink="http://www.w3.org/1999/xlink" width="400px" height="400px" viewBox="0 0 400 400" version="1.1">
<g id="surface1">
<path style=" stroke:none;fill-rule:nonzero;fill:rgb(94.509804%,76.078433%,10.588235%);fill-opacity:1;" d="M 258.800781 112.199219 C 281 135.199219 307 146 319.398438 165.601562 C 331.800781 185.199219 330.800781 213.601562 317.800781 233.398438 C 304.601562 253.199219 279.800781 264.199219 258.199219 275.199219 C 236.601562 286.199219 218.199219 297 202.601562 293.398438 C 187 289.800781 174.199219 271.601562 156 259.398438 C 138 247.398438 114.800781 241.398438 103.800781 226.800781 C 93 212.199219 94.601562 189.199219 105.601562 173.800781 C 116.800781 158.398438 137.398438 150.398438 154.800781 125.800781 C 172.199219 101.398438 186 60.199219 202.199219 57 C 218.199219 54 236.601562 89.199219 258.800781 112.199219 Z M 258.800781 112.199219 "/>
</g>
</svg>
